<?xml version="1.0" standalone="no"?>
<!DOCTYPE svg PUBLIC "-//W3C//DTD SVG 20010904//EN"
 "http://www.w3.org/TR/2001/REC-SVG-20010904/DTD/svg10.dtd">
<svg version="1.0" xmlns="http://www.w3.org/2000/svg"
 width="2000.000000pt" height="2000.000000pt" viewBox="0 0 2000.000000 2000.000000"
 preserveAspectRatio="xMidYMid meet">
<metadata>
Created by potrace 1.16, written by Peter Selinger 2001-2019
</metadata>
<g transform="translate(0.000000,2000.000000) scale(0.100000,-0.100000)"
fill="#000000" stroke="none">
<path d="M9695 18026 c-42 -19 -85 -64 -107 -113 -22 -49 -42 -260 -58 -606
-28 -629 14 -1233 93 -1334 27 -34 75 -53 136 -53 71 0 99 16 113 62 10 35 14
39 37 34 14 -3 63 -9 108 -12 106 -9 186 7 290 57 363 174 605 824 508 1365
-59 328 -231 523 -488 554 -123 15 -215 -3 -284 -56 -38 -28 -43 -29 -43 -7 0
26 -81 97 -127 111 -52 16 -140 15 -178 -2z m570 -235 c93 -42 161 -177 201
-397 25 -141 25 -449 0 -599 -39 -237 -111 -413 -214 -525 -67 -73 -123 -106
-211 -122 -51 -10 -63 -9 -85 5 -54 36 -60 64 -53 262 11 310 94 1302 110
1323 12 15 79 51 117 63 43 13 93 9 135 -10z"/>
<path d="M8433 17386 c-136 -45 -220 -114 -271 -224 -24 -50 -27 -69 -27 -157
1 -137 24 -195 114 -284 78 -77 159 -120 359 -192 204 -73 252 -109 252 -190
0 -43 -60 -103 -120 -119 -59 -16 -163 -7 -222 18 -26 12 -77 48 -113 82 -74
69 -99 74 -146 32 -27 -24 -33 -37 -37 -84 -4 -52 -2 -58 32 -95 158 -175 552
-176 751 -1 94 83 126 215 75 308 -34 60 -104 101 -250 146 -318 98 -348 111
-415 187 -37 40 -47 60 -61 123 -36 165 -4 296 86 342 137 70 228 -46 249
-317 7 -81 11 -97 31 -113 33 -26 61 -31 111 -18 93 25 136 116 127 265 -8
125 -77 229 -187 282 -48 23 -71 27 -161 30 -89 3 -116 0 -177 -21z"/>
<path d="M12160 17393 c-48 -18 -65 -64 -31 -83 38 -20 77 -12 90 17 l13 28
46 -52 c54 -59 96 -83 147 -83 38 0 83 19 104 43 10 12 8 18 -11 31 -31 22
-71 20 -93 -4 -18 -20 -19 -20 -70 34 -62 65 -135 91 -195 69z"/>
<path d="M6370 17204 c-25 -14 -48 -31 -53 -37 -12 -18 -1 -75 48 -255 25 -89
45 -168 45 -176 0 -7 -11 -18 -25 -24 -39 -18 -115 -93 -115 -113 0 -33 42
-44 116 -30 37 6 68 10 70 8 2 -2 39 -109 83 -238 154 -454 226 -606 333 -705
57 -53 101 -67 191 -62 134 7 270 95 326 211 43 88 57 179 42 283 -13 93 -34
159 -58 186 -19 21 -91 25 -126 7 -60 -31 -69 -76 -36 -179 26 -83 35 -211 19
-269 -13 -48 -67 -111 -95 -111 -87 0 -226 271 -358 700 -25 80 -52 176 -60
213 l-15 68 71 36 c148 74 194 115 167 148 -18 22 -68 18 -175 -11 -52 -15
-100 -24 -108 -21 -8 3 -27 59 -46 136 -33 135 -61 213 -88 244 -25 26 -98 22
-153 -9z"/>
<path d="M11175 17217 c-120 -40 -208 -150 -257 -324 -29 -104 -32 -308 -4
-398 26 -86 74 -172 115 -206 76 -63 194 -75 294 -31 299 132 403 676 169 883
-79 69 -228 105 -317 76z m130 -170 c76 -76 70 -295 -15 -519 -68 -182 -166
-220 -206 -81 -14 47 -16 83 -11 188 7 149 32 267 77 354 49 98 97 116 155 58z"/>
<path d="M11903 17130 c-55 -28 -84 -75 -127 -209 -45 -137 -127 -466 -162
-647 -25 -132 -25 -134 -7 -171 36 -75 167 -108 224 -57 46 40 224 495 269
682 17 71 61 116 136 138 86 25 147 5 181 -59 13 -24 17 -55 17 -127 0 -119
-22 -201 -115 -443 -39 -100 -76 -208 -84 -241 -22 -93 4 -135 85 -136 41 0
48 4 100 58 136 140 250 478 238 705 -8 157 -60 237 -192 299 -68 32 -76 33
-189 33 l-117 0 0 39 c0 110 -150 190 -257 136z"/>
<path d="M7595 16997 c-111 -37 -168 -89 -207 -187 -19 -47 -22 -74 -22 -180
0 -112 3 -134 31 -217 79 -237 228 -393 378 -393 266 0 409 341 285 681 -49
135 -140 241 -245 285 -52 22 -170 27 -220 11z m89 -176 c89 -56 166 -282 166
-492 0 -156 -38 -217 -109 -178 -105 59 -229 443 -197 613 14 72 75 97 140 57z"/>
<path d="M13038 16826 c-60 -22 -125 -64 -158 -103 -43 -53 -82 -135 -87 -188
-5 -39 -2 -47 25 -75 30 -30 80 -40 109 -22 6 4 30 43 52 87 109 215 291 282
393 144 51 -68 40 -183 -37 -391 -26 -71 -48 -128 -50 -128 -2 0 -30 26 -62
58 -98 99 -240 132 -371 88 -105 -36 -210 -139 -248 -244 -19 -52 -18 -198 2
-255 38 -111 169 -201 293 -201 49 0 77 5 109 22 36 19 42 20 42 6 0 -9 -10
-33 -21 -54 -27 -48 -20 -66 35 -91 62 -27 125 -10 182 49 47 49 199 288 257
404 166 334 178 586 37 742 -113 122 -368 200 -502 152z m69 -641 c56 -17 128
-79 138 -118 7 -26 -32 -132 -90 -247 -41 -82 -90 -123 -168 -140 -70 -16
-125 -1 -166 45 -56 64 -52 155 12 290 53 111 103 161 177 176 19 4 38 7 41 8
3 0 28 -6 56 -14z"/>
<path d="M5926 16759 c-83 -20 -146 -93 -146 -167 0 -54 12 -77 50 -97 51 -26
111 -19 191 23 62 31 77 44 97 83 20 41 22 52 13 86 -16 58 -41 76 -109 79
-31 2 -75 -1 -96 -7z"/>
<path d="M4979 16512 c-30 -15 -60 -40 -69 -54 -18 -33 -15 -44 88 -266 l75
-163 -24 -16 c-38 -27 -89 -86 -96 -111 -12 -49 36 -65 112 -36 22 8 47 18 56
20 11 4 35 -31 94 -143 257 -486 372 -654 500 -729 42 -24 61 -29 116 -29 55
0 77 6 140 37 129 64 206 162 230 292 11 63 6 125 -18 220 -19 77 -67 172 -94
187 -33 17 -97 4 -130 -27 -46 -44 -46 -72 0 -166 70 -146 84 -281 37 -353
-68 -104 -188 9 -397 372 -76 131 -217 420 -225 461 -5 25 -1 33 28 53 79 55
168 132 173 150 9 27 -12 49 -46 49 -16 0 -74 -21 -129 -46 -54 -26 -105 -44
-113 -41 -8 3 -26 36 -40 74 -37 100 -95 216 -129 257 -37 45 -66 46 -139 8z"/>
<path d="M14492 16470 c-50 -23 -81 -55 -172 -175 -185 -247 -376 -598 -456
-835 -39 -117 -40 -210 -3 -266 54 -81 229 -157 364 -158 65 -1 80 2 80 14 0
14 -17 21 -159 63 -61 18 -96 52 -96 94 0 41 94 239 141 296 33 41 29 41 138
-11 85 -39 128 -45 144 -20 16 24 -8 47 -108 100 -59 32 -81 49 -83 66 -7 49
302 555 392 641 35 34 36 34 78 22 58 -18 149 -64 229 -117 93 -61 118 -58
104 14 -10 56 -120 157 -233 215 -149 77 -272 97 -360 57z"/>
<path d="M6085 16378 c-45 -16 -91 -53 -104 -86 -11 -26 -9 -38 18 -104 48
-114 265 -549 325 -652 65 -110 83 -127 138 -133 51 -5 104 23 114 61 22 90
-260 841 -341 904 -31 24 -96 29 -150 10z"/>
<path d="M15386 16280 c-15 -5 -37 -17 -48 -27 -24 -21 -454 -663 -655 -978
-163 -256 -279 -455 -288 -494 -22 -101 120 -200 207 -143 25 16 95 107 494
647 94 127 243 327 331 446 88 118 169 231 179 250 12 22 18 55 18 94 0 102
-56 179 -149 204 -46 12 -49 12 -89 1z"/>
<path d="M4589 15766 c-77 -22 -150 -68 -220 -136 -176 -174 -184 -411 -18
-579 52 -53 110 -84 202 -108 71 -18 229 -13 383 12 177 29 260 15 290 -48 43
-89 -43 -202 -185 -244 -62 -17 -139 -13 -210 12 -63 22 -94 19 -122 -11 -18
-19 -24 -37 -24 -69 0 -83 63 -132 182 -142 249 -21 560 213 588 442 10 74
-15 154 -63 204 -68 71 -152 77 -390 29 -109 -22 -187 -32 -257 -32 -94 -1
-103 1 -152 29 -101 58 -196 210 -197 315 -1 121 93 190 200 145 51 -21 135
-112 195 -210 60 -99 83 -110 152 -76 64 32 82 64 82 141 -2 179 -143 327
-322 336 -38 2 -89 -3 -114 -10z"/>
<path d="M15590 15483 c-227 -47 -565 -407 -664 -706 -32 -96 -40 -187 -22
-257 27 -106 84 -160 189 -182 77 -16 177 3 277 53 78 39 149 103 151 137 3
44 -9 62 -43 62 -9 0 -43 -23 -75 -51 -77 -68 -166 -111 -213 -103 -77 14
-130 63 -130 120 0 62 100 217 260 403 l29 34 68 -41 c148 -89 249 -118 326
-93 73 24 166 158 187 269 36 191 -157 393 -340 355z m202 -214 c29 -29 30
-33 26 -92 -6 -74 -34 -132 -83 -175 -43 -39 -66 -40 -134 -6 -67 34 -121 85
-121 115 0 31 102 128 171 163 70 35 103 34 141 -5z"/>
<path d="M4069 14947 c-52 -35 -79 -82 -79 -138 0 -45 5 -54 97 -171 115 -146
226 -280 305 -365 65 -70 68 -85 37 -151 -46 -94 -157 -129 -236 -74 -48 33
-186 179 -316 334 -135 163 -176 177 -286 97 -109 -78 -87 -175 80 -353 222
-237 407 -337 563 -305 119 25 210 105 267 234 29 67 36 75 54 69 11 -3 41 -9
66 -11 42 -4 48 -2 72 27 28 32 57 115 57 160 0 39 -50 133 -120 225 -126 166
-349 398 -417 434 -37 19 -106 13 -144 -12z"/>
<path d="M16062 14943 c-100 -49 -640 -599 -679 -691 -23 -56 15 -145 77 -177
63 -32 99 -22 213 64 148 110 296 233 410 340 l97 91 62 0 c158 -1 226 -94
164 -225 -49 -105 -140 -201 -351 -370 -161 -128 -223 -188 -231 -221 -10 -39
4 -73 39 -94 62 -38 139 -22 267 57 279 173 485 447 468 623 -11 114 -102 228
-236 296 -42 21 -79 40 -80 41 -2 1 6 15 18 31 19 25 22 40 18 81 -12 126
-148 208 -256 154z"/>
<path d="M2708 14579 c-146 -34 -315 -191 -379 -351 -30 -74 -36 -203 -15
-288 36 -144 145 -309 307 -466 364 -350 793 -547 1069 -490 98 21 170 58 236
123 66 65 110 150 126 241 24 140 -42 332 -157 460 -89 98 -162 132 -244 113
-57 -12 -102 -45 -139 -100 -59 -90 -65 -163 -17 -215 34 -37 73 -34 130 10
44 33 49 35 77 23 42 -17 131 -120 174 -202 32 -60 38 -82 39 -134 0 -55 -3
-65 -29 -92 -40 -42 -85 -55 -162 -47 -210 22 -580 260 -874 562 -200 206
-291 349 -298 470 -4 63 -4 64 36 104 33 33 46 40 78 40 58 0 126 -37 252
-136 208 -164 237 -184 289 -209 73 -35 104 -33 153 11 78 71 74 144 -13 267
-159 222 -435 354 -639 306z"/>
<path d="M10080 14479 c-58 -3 -149 -16 -203 -28 -54 -13 -106 -20 -115 -16
-9 4 -96 9 -192 10 -199 3 -258 -4 -597 -70 -128 -24 -285 -51 -350 -60 -125
-16 -368 -77 -568 -143 -143 -48 -389 -139 -427 -158 -15 -8 -59 -26 -98 -40
-39 -14 -103 -41 -143 -60 -61 -29 -82 -34 -143 -34 -125 0 -360 -72 -495
-153 -24 -14 -131 -95 -237 -181 -192 -154 -266 -206 -372 -261 -174 -91 -289
-172 -476 -336 -174 -152 -245 -229 -374 -399 -104 -139 -243 -309 -330 -405
-93 -103 -141 -171 -176 -253 -14 -31 -65 -140 -114 -242 -156 -324 -270 -603
-351 -855 -17 -55 -55 -161 -84 -235 -29 -74 -77 -211 -108 -305 -146 -445
-148 -458 -150 -853 l-1 -287 37 -205 c54 -293 57 -312 51 -321 -3 -5 -5 -98
-5 -206 0 -218 9 -302 66 -593 89 -455 119 -547 273 -855 63 -126 125 -258
138 -293 56 -148 126 -258 248 -391 114 -125 149 -181 158 -259 5 -37 10 -206
13 -377 2 -191 10 -361 19 -443 21 -175 20 -201 -8 -404 -36 -256 -39 -297
-27 -379 16 -101 85 -304 129 -381 45 -77 132 -165 194 -196 65 -32 150 -46
193 -32 35 11 218 189 242 233 22 43 55 231 60 349 3 64 0 181 -6 259 -13 148
-6 389 11 389 15 0 527 -342 602 -403 38 -30 116 -84 174 -119 161 -98 145
-62 122 -283 -21 -195 -49 -360 -100 -593 -51 -227 -60 -514 -23 -691 15 -71
19 -77 92 -154 133 -141 283 -247 347 -247 35 0 190 52 263 90 82 41 122 79
158 147 49 93 72 241 73 454 0 133 -10 191 -65 359 -99 305 -157 522 -143 536
4 3 41 -15 85 -40 127 -74 390 -191 508 -226 61 -18 157 -47 215 -65 402 -123
487 -148 585 -170 69 -16 166 -30 260 -36 289 -18 381 -28 571 -63 361 -66
403 -71 639 -70 222 0 542 25 774 60 70 10 107 12 114 5 18 -18 10 -304 -12
-435 -12 -65 -21 -144 -21 -175 -1 -101 -18 -196 -59 -317 -58 -174 -76 -339
-45 -431 72 -219 218 -367 372 -380 95 -8 256 22 338 62 98 48 216 171 274
288 41 81 42 83 36 162 -6 94 -40 259 -96 475 -95 368 -91 339 -90 609 0 134
3 254 6 267 5 19 19 28 78 44 109 32 439 128 551 162 60 18 185 71 312 134
117 57 259 122 315 145 57 22 118 49 136 60 35 20 58 24 66 11 9 -14 -23 -171
-63 -317 -66 -235 -79 -341 -56 -470 29 -169 81 -296 157 -385 29 -34 136
-114 177 -132 56 -26 85 -20 218 42 126 59 216 125 299 218 115 128 159 252
157 447 -2 154 -15 216 -140 665 -13 47 -26 101 -29 120 -4 19 -15 61 -25 92
-33 100 -28 121 44 192 35 34 119 98 188 141 201 127 550 365 601 409 26 23
102 118 169 211 67 94 143 197 168 230 106 136 256 375 466 740 160 278 210
389 358 795 52 142 163 495 181 575 35 158 40 195 40 315 1 69 -4 212 -10 318
-9 158 -9 201 3 245 19 72 99 577 114 714 6 62 9 170 7 240 -5 111 -11 152
-52 308 -26 99 -67 260 -92 357 -85 339 -303 917 -409 1088 -12 19 -56 103
-99 185 -57 110 -92 165 -132 205 -29 30 -67 84 -84 119 -35 69 -72 130 -162
263 -91 137 -109 174 -102 219 5 32 2 44 -23 76 -16 21 -36 49 -45 63 -33 54
-93 100 -148 116 -96 28 -117 41 -162 101 -173 231 -317 381 -443 458 -101 63
-198 126 -500 330 -99 67 -223 146 -275 176 -147 86 -417 223 -498 254 -73 27
-74 27 -113 9 l-40 -17 -177 90 c-193 99 -282 131 -442 162 -58 12 -190 44
-295 71 -348 93 -491 122 -650 135 -102 7 -227 29 -385 64 -69 16 -168 36
-220 45 -106 17 -410 26 -570 15z m575 -219 c99 -11 223 -27 275 -35 52 -8
148 -22 213 -32 126 -19 139 -28 91 -65 -51 -41 -51 -108 0 -108 13 0 85 16
160 35 135 34 137 35 254 25 375 -31 405 -36 607 -106 537 -186 689 -250 1025
-430 244 -130 350 -198 530 -343 144 -115 193 -159 188 -169 -1 -5 -46 -46
-99 -90 -53 -45 -111 -98 -128 -119 -33 -40 -40 -77 -16 -87 17 -6 33 -1 257
88 92 36 182 66 199 66 42 0 118 -59 204 -158 94 -109 96 -129 14 -152 -47
-13 -89 -46 -89 -71 0 -11 11 -31 25 -44 30 -31 101 -34 180 -9 29 9 63 14 76
11 30 -8 241 -207 295 -278 23 -30 56 -88 75 -129 19 -41 57 -115 86 -163 28
-49 50 -94 47 -101 -7 -18 -125 -46 -196 -46 -34 1 -99 7 -143 15 -44 9 -124
18 -177 22 -88 5 -98 4 -104 -12 -11 -29 7 -48 86 -87 105 -53 387 -120 523
-124 99 -3 110 -8 160 -71 153 -193 195 -245 250 -307 34 -37 65 -73 68 -80
16 -28 112 -542 105 -555 -3 -5 -43 -10 -89 -13 -117 -8 -168 -38 -151 -90 9
-28 41 -37 175 -44 142 -8 122 17 179 -218 63 -257 72 -352 74 -741 l1 -340
-44 -145 c-24 -80 -45 -151 -47 -157 -6 -23 -27 -14 -98 40 -110 84 -122 90
-145 77 -47 -25 -15 -71 131 -189 37 -30 69 -60 72 -68 16 -40 -271 -714 -307
-721 -8 -2 -33 8 -54 22 -21 14 -50 28 -65 31 -57 14 -44 -34 39 -144 l33 -44
-27 -48 c-14 -27 -66 -99 -115 -161 -121 -153 -127 -160 -138 -153 -4 3 -18
35 -30 71 -50 148 -230 290 -206 161 4 -22 28 -58 71 -106 73 -80 119 -162
111 -195 -11 -41 -142 -191 -236 -269 -52 -43 -140 -118 -195 -166 -290 -253
-699 -562 -723 -547 -4 2 -2 51 4 108 25 210 14 447 -32 663 -50 238 -165 511
-270 641 -18 23 -81 113 -140 200 -58 88 -120 175 -138 194 -18 19 -58 67 -89
105 -74 93 -160 175 -222 210 -27 16 -70 45 -95 65 -73 60 -236 159 -355 216
-82 40 -145 62 -247 86 -76 18 -138 36 -138 41 0 5 16 28 35 51 50 61 98 173
133 306 49 186 67 225 123 270 89 71 297 165 448 203 72 19 86 26 89 44 3 18
-3 23 -33 29 -56 10 -139 -4 -300 -52 -82 -25 -171 -48 -197 -51 l-48 -6 0
134 c0 167 8 185 121 296 68 66 100 90 169 122 87 40 192 78 292 106 97 26 98
68 0 84 -91 14 -187 -4 -363 -70 -90 -33 -173 -62 -183 -62 -15 -2 -21 9 -31
53 -7 30 -20 90 -30 132 l-18 77 42 81 c22 44 61 111 85 148 95 145 181 291
223 377 38 78 41 91 28 104 -11 11 -20 12 -38 4 -29 -14 -362 -377 -423 -463
-25 -36 -50 -77 -56 -92 -5 -16 -14 -28 -19 -28 -4 0 -76 68 -160 151 -127
127 -150 154 -145 174 3 12 38 90 77 171 39 82 89 187 111 234 23 47 61 118
86 158 36 59 42 75 32 87 -20 24 -41 17 -82 -27 -80 -86 -229 -293 -249 -344
-5 -16 -26 -61 -47 -101 -27 -55 -41 -73 -57 -73 -26 0 -245 164 -344 256 -75
71 -74 69 -98 185 -3 17 8 58 34 120 22 52 52 139 67 194 15 55 41 143 57 197
32 107 36 143 15 151 -21 8 -39 -19 -76 -113 -18 -47 -70 -159 -116 -250 -45
-91 -88 -184 -95 -208 -12 -41 -13 -42 -58 -42 -25 0 -65 -7 -88 -16 -40 -16
-47 -16 -105 2 -50 14 -99 18 -234 19 -125 0 -175 3 -187 13 -8 7 -31 53 -50
101 l-36 88 -4 332 c-2 211 -8 336 -14 342 -18 18 -57 6 -70 -21 -18 -38 -43
-285 -43 -424 0 -123 -12 -245 -31 -319 -8 -30 -18 -41 -57 -61 -116 -58 -124
-60 -472 -67 -277 -5 -336 -9 -402 -26 -42 -11 -81 -17 -86 -14 -5 3 -12 67
-15 141 -6 133 -20 210 -57 300 -10 25 -32 89 -49 143 -39 124 -56 157 -81
157 -25 0 -25 9 5 -138 14 -68 25 -138 25 -157 0 -18 10 -100 21 -182 19 -131
20 -158 9 -230 -7 -52 -18 -87 -29 -97 -9 -8 -93 -50 -186 -91 -94 -42 -198
-89 -233 -105 -34 -17 -69 -30 -76 -30 -8 0 -20 17 -26 38 -29 89 -178 315
-284 428 -77 83 -124 112 -145 91 -17 -17 -14 -25 34 -85 38 -49 93 -164 120
-252 4 -14 39 -87 76 -163 38 -77 69 -149 69 -160 0 -20 -80 -99 -426 -420
l-51 -47 -66 67 c-35 38 -96 104 -133 148 -78 91 -178 188 -211 206 -26 14
-53 6 -53 -17 0 -9 33 -60 73 -113 65 -86 100 -138 254 -372 24 -36 43 -77 43
-90 0 -13 -27 -78 -61 -144 -49 -97 -62 -134 -70 -194 -5 -40 -6 -84 -3 -97
12 -47 -23 -37 -208 56 -230 116 -398 164 -398 115 0 -16 26 -38 75 -63 22
-11 78 -46 125 -77 47 -30 136 -81 199 -113 62 -31 131 -72 152 -90 l39 -34 0
-169 c0 -106 -4 -169 -10 -169 -6 0 -52 20 -103 44 -154 72 -246 104 -337 114
-89 10 -249 1 -348 -18 -221 -44 -582 -211 -721 -335 -20 -17 -71 -55 -113
-83 -94 -63 -177 -132 -287 -237 -147 -141 -202 -218 -364 -510 -28 -49 -72
-125 -99 -168 -131 -208 -220 -419 -254 -602 -25 -136 -54 -243 -70 -256 -12
-10 -23 -4 -61 32 -109 106 -259 334 -406 621 -101 197 -137 283 -137 324 0
14 17 48 39 77 21 29 42 62 46 75 3 12 18 35 31 52 15 17 24 39 22 52 -3 21
-8 23 -55 23 -43 -1 -61 -7 -98 -33 -54 -38 -71 -40 -78 -9 -3 12 -23 93 -46
180 -23 88 -46 202 -52 255 -27 235 36 801 130 1178 27 108 55 201 63 205 12
8 87 -29 299 -147 94 -53 131 -64 144 -43 14 21 -6 56 -68 121 -74 78 -175
133 -263 144 -75 9 -80 18 -55 106 11 40 27 109 36 153 13 64 33 111 100 235
46 85 97 193 114 238 32 88 104 221 154 285 34 43 25 43 161 2 72 -22 93 -25
113 -16 54 25 11 68 -144 147 -54 27 -47 50 49 184 115 160 235 307 324 399
l102 106 64 -23 c49 -18 100 -26 223 -35 174 -11 209 -8 226 24 9 18 7 26 -9
48 -29 40 -74 61 -149 72 -170 23 -215 33 -220 45 -7 18 112 169 184 234 95
86 201 151 318 197 60 24 117 43 125 43 8 0 42 -18 75 -40 103 -69 152 -83
308 -88 150 -5 167 0 167 48 0 36 -42 77 -92 91 -23 6 -68 7 -107 3 l-67 -6
-50 58 c-73 87 -75 90 -68 109 4 10 32 34 63 54 31 20 100 67 153 104 105 73
325 184 423 212 33 10 96 18 140 19 66 1 88 -3 125 -23 69 -36 319 -147 374
-165 44 -15 51 -15 72 -1 14 9 24 25 24 39 0 48 -162 196 -274 251 -22 11 -40
25 -40 30 1 6 34 26 75 46 179 87 536 185 711 196 l98 6 145 -62 c118 -51 149
-60 160 -51 22 18 18 50 -10 95 -13 22 -25 48 -25 57 0 27 141 64 335 88 94
12 204 26 245 31 141 18 225 26 233 22 13 -7 25 -45 63 -192 45 -171 66 -221
94 -221 34 0 50 54 48 162 -1 126 13 239 32 248 40 19 126 41 235 59 66 11
131 23 145 25 53 10 383 -4 555 -24z m-795 -2980 c14 -4 19 -8 13 -9 -7 -1
-13 -8 -13 -16 0 -9 -9 -15 -25 -15 -14 0 -25 5 -25 10 0 6 -11 10 -25 10 -14
0 -25 -4 -25 -10 0 -5 -11 -10 -25 -10 -14 0 -25 5 -25 10 0 6 -7 10 -15 10
-8 0 -15 -4 -15 -10 0 -5 -10 -10 -22 -10 -13 0 -30 -5 -38 -10 -11 -7 -7 -10
20 -11 33 -1 33 -2 -10 -9 -25 -5 -74 -18 -108 -29 -67 -22 -102 -17 -102 14
0 11 12 15 44 15 30 0 46 5 50 15 3 8 11 15 17 15 7 0 21 8 31 17 11 10 40 20
66 24 66 9 202 9 232 -1z m817 -6 c2 -7 22 -9 52 -6 42 4 51 1 60 -17 7 -11
18 -21 26 -21 8 0 15 -4 15 -10 0 -14 37 -12 43 3 3 6 6 2 6 -10 1 -19 -4 -23
-29 -23 -17 0 -30 5 -31 13 0 10 -2 10 -6 0 -3 -8 -23 -13 -49 -13 -40 0 -44
2 -44 25 0 21 -5 25 -29 25 -16 0 -31 4 -33 9 -1 5 -24 12 -50 16 -40 6 -48 5
-48 -9 0 -9 -4 -16 -10 -16 -5 0 -10 5 -10 10 0 6 -35 10 -84 10 -88 0 -116 5
-116 22 0 14 332 6 337 -8z m-837 -124 c0 -5 15 -10 33 -10 17 0 46 -9 62 -20
36 -24 65 -26 65 -5 0 18 27 20 33 3 2 -7 -2 -17 -9 -23 -10 -8 -10 -13 2 -23
8 -7 14 -8 14 -2 0 5 17 10 38 9 20 0 31 -3 25 -6 -7 -2 -13 -13 -13 -23 0
-10 6 -20 13 -23 6 -2 -14 -8 -46 -12 -65 -8 -187 2 -187 16 0 5 -13 9 -30 9
-16 0 -30 4 -30 9 0 5 -10 11 -22 13 -12 2 -23 8 -25 14 -4 13 30 54 46 54 6
0 11 7 11 15 0 8 5 15 10 15 6 0 10 -4 10 -10z m1330 -31 c25 -6 52 -16 60
-24 8 -7 31 -15 50 -17 25 -2 38 -10 45 -25 5 -13 20 -23 35 -25 14 -2 -15 -3
-65 -3 -61 1 -102 7 -127 18 -21 9 -41 17 -46 17 -7 0 -18 17 -40 63 -5 10 35
8 88 -4z m312 -142 c19 -13 47 -27 62 -31 25 -6 28 -5 23 13 -3 12 -1 21 4 21
5 0 9 -4 9 -10 0 -5 7 -10 15 -10 8 0 15 -4 15 -10 0 -5 11 -12 25 -16 14 -3
22 -10 19 -15 -3 -5 -18 0 -34 11 -33 24 -40 25 -40 6 0 -7 14 -28 32 -45 l32
-31 -27 0 c-21 0 -27 -5 -27 -21 0 -11 6 -27 14 -35 8 -8 24 -14 35 -14 12 0
21 -6 21 -13 0 -9 -18 -12 -72 -9 -40 3 -74 8 -76 13 -2 5 -12 9 -23 9 -12 0
-19 7 -19 20 0 11 5 20 10 20 6 0 10 9 10 20 0 11 -4 20 -10 20 -5 0 -10 16
-10 35 0 24 -5 35 -15 35 -8 0 -15 -7 -15 -15 0 -20 -23 -19 -49 3 -28 23 -19
59 18 65 14 2 29 5 32 6 3 0 22 -10 41 -22z m-1092 -132 c0 -8 5 -15 10 -15 6
0 10 -4 10 -10 0 -5 -7 -10 -15 -10 -8 0 -15 -4 -15 -10 0 -5 -7 -10 -16 -10
-10 0 -14 -6 -11 -14 6 -15 -29 -18 -308 -32 -71 -4 -139 -9 -150 -11 -106
-25 -201 -31 -218 -14 -8 8 -3 11 21 11 18 0 35 7 40 16 5 8 26 19 48 24 32 8
212 13 374 11 19 0 48 8 65 18 36 22 111 35 120 21 11 -18 25 -10 25 15 0 14
5 25 10 25 6 0 10 -7 10 -15z m1373 -84 c9 -21 17 -52 17 -69 0 -22 5 -32 15
-32 8 0 15 5 15 10 0 6 9 10 20 10 30 0 100 -68 100 -97 0 -13 6 -23 14 -23 7
0 16 -9 19 -20 4 -15 0 -20 -14 -20 -12 0 -19 -7 -19 -20 0 -11 7 -20 15 -20
8 0 15 -4 15 -10 0 -5 -18 -10 -39 -10 -22 0 -42 -6 -45 -12 -5 -10 -7 -10
-12 0 -8 17 -74 16 -74 -2 0 -8 6 -17 13 -19 8 -4 9 -8 1 -14 -6 -4 -14 -20
-18 -35 -5 -22 -3 -28 10 -28 16 0 16 -2 -1 -20 -12 -14 -16 -27 -11 -47 21
-86 21 -80 -1 -60 -11 9 -30 17 -44 17 -20 0 -24 5 -25 32 -1 18 -6 34 -13 36
-6 2 -11 10 -11 18 0 8 -10 14 -25 14 -14 0 -25 5 -25 10 0 6 5 10 11 10 25 0
36 29 38 100 1 41 6 77 11 80 10 6 15 44 12 108 -2 35 -5 42 -22 42 -16 0 -20
7 -20 35 0 28 4 35 20 35 24 0 27 15 4 24 -24 9 -8 23 23 18 21 -3 33 -14 46
-41z m-897 -227 c15 -4 20 -11 17 -25 -3 -10 -1 -19 5 -19 5 0 24 -3 42 -7 24
-4 31 -3 26 5 -5 8 -1 10 10 5 14 -5 14 -8 -6 -18 -38 -21 -2 -34 86 -32 89 2
194 -25 194 -50 0 -8 10 -23 23 -34 28 -23 10 -25 -59 -4 -60 18 -155 20 -172
3 -10 -10 -12 -8 -10 11 4 30 -15 37 -38 14 -12 -13 -19 -14 -22 -5 -2 6 -12
12 -23 12 -21 0 -26 16 -6 23 7 3 5 6 -5 6 -11 1 -18 9 -18 21 0 23 -14 26
-34 8 -11 -10 -11 -15 0 -25 7 -7 17 -13 23 -13 17 0 13 -37 -4 -44 -8 -3 -15
-16 -15 -30 0 -14 7 -31 15 -40 8 -8 15 -19 15 -25 0 -6 5 -11 11 -11 6 0 27
-15 46 -34 33 -31 35 -35 20 -50 -8 -9 -22 -16 -29 -15 -10 0 -10 2 0 6 23 9
12 23 -13 17 -14 -3 -25 -2 -25 4 0 5 -16 13 -35 16 -19 3 -51 9 -70 12 -24 4
-35 2 -35 -5 0 -7 -4 -9 -10 -6 -5 3 -10 17 -10 31 0 17 -5 24 -20 24 -11 0
-20 5 -20 10 0 6 11 10 25 10 14 0 25 6 25 13 0 8 16 27 35 43 24 20 35 37 35
56 0 16 -4 28 -10 28 -5 0 -10 9 -10 19 0 20 -25 35 -41 25 -5 -3 -9 -1 -9 5
0 5 -3 16 -6 25 -5 12 3 14 50 9 68 -7 77 11 14 25 -37 9 -39 10 -13 11 17 0
40 -2 51 -5z m-1535 -112 c6 -16 5 -24 -4 -26 -78 -23 -185 -41 -199 -34 -9 4
-28 8 -42 8 -14 0 -26 5 -26 10 0 6 -11 10 -25 10 -14 0 -25 -4 -25 -10 0 -5
-18 -10 -40 -10 -43 0 -55 -21 -23 -39 16 -8 14 -10 -10 -16 -15 -4 -34 -5
-42 -1 -8 3 -15 1 -15 -5 0 -11 -25 -39 -34 -39 -3 0 -6 9 -6 20 0 12 7 20 16
20 12 0 15 6 10 23 -9 36 15 61 58 61 20 0 36 4 36 8 0 4 23 8 50 8 29 0 50 5
50 11 0 6 9 8 20 4 12 -4 20 -2 20 5 0 9 15 10 53 6 28 -3 66 -2 82 3 49 16
87 9 96 -17z m2715 -6 c8 -8 14 -18 14 -22 0 -4 16 -20 35 -37 19 -16 35 -35
35 -41 0 -6 20 -51 45 -101 25 -49 43 -79 41 -65 -18 97 -18 103 -3 89 33 -34
47 -138 47 -355 0 -115 -3 -219 -6 -231 -11 -40 -24 -14 -24 48 0 54 -12 78
-23 47 -11 -33 -18 11 -21 133 -5 201 -3 189 -26 189 -15 0 -21 -9 -26 -40 -6
-34 -10 -40 -30 -40 -13 0 -24 -4 -24 -10 0 -5 -8 -10 -19 -10 -15 0 -21 -11
-29 -57 -7 -44 -10 -50 -11 -24 -1 30 -4 33 -26 29 -17 -4 -25 -1 -25 8 0 15
-30 18 -67 8 -22 -6 -33 -34 -13 -34 6 0 10 -3 10 -7 0 -5 -22 -6 -50 -5 -41
3 -50 7 -50 22 0 11 -4 21 -9 24 -5 3 -7 15 -4 27 5 17 11 20 39 14 30 -5 34
-3 40 20 3 14 3 45 0 70 -8 51 3 58 32 20 11 -14 23 -22 26 -17 8 14 55 21 59
9 6 -19 57 2 57 23 0 11 -6 20 -13 20 -9 0 -11 12 -9 38 3 26 -1 44 -12 55
-21 21 -20 26 4 20 11 -3 20 -9 20 -14 0 -5 7 -9 15 -9 11 0 15 12 15 50 0 38
-4 50 -15 50 -8 0 -15 -8 -15 -17 0 -10 -3 -13 -8 -7 -8 9 -4 144 5 144 2 0
11 -6 19 -14z m-1642 -61 c10 -14 27 -25 37 -25 9 0 20 -6 23 -12 3 -8 5 -8 3
2 -2 19 6 22 41 15 77 -16 98 -27 100 -51 3 -41 -35 -51 -117 -31 -38 10 -91
18 -117 18 l-49 2 39 6 c44 7 58 26 27 36 -14 4 -21 15 -21 31 0 15 -6 24 -15
24 -8 0 -15 -7 -15 -15 0 -8 -4 -15 -10 -15 -5 0 -10 9 -10 20 0 31 60 28 84
-5z m-1959 -55 c-8 -16 -15 -36 -15 -45 0 -9 -9 -19 -20 -22 -23 -6 -24 -13
-8 -48 13 -29 65 -38 54 -9 -5 13 -1 15 20 10 19 -5 35 0 59 19 41 30 48 31
40 5 -5 -17 -1 -21 24 -26 17 -4 31 -9 32 -13 8 -103 13 -137 22 -143 13 -8
-15 -38 -35 -38 -8 0 -20 -6 -27 -12 -11 -11 -14 -10 -18 0 -3 7 -11 19 -19
26 -8 8 -14 19 -14 25 0 6 -4 11 -10 11 -5 0 -10 7 -10 16 0 12 -9 15 -37 13
-60 -3 -63 -1 -63 36 0 19 -4 35 -10 35 -15 0 -50 -38 -50 -54 0 -12 -34 -29
-42 -21 -2 2 -2 35 0 74 3 53 7 71 18 71 8 0 14 4 14 9 0 5 9 11 20 14 11 3
20 13 20 22 0 24 38 75 56 75 13 0 12 -4 -1 -30z m1528 21 c14 -6 45 -13 68
-16 24 -4 47 -10 52 -14 4 -4 32 -4 63 -1 30 3 57 3 60 -2 3 -4 22 -9 42 -9
22 -1 29 -3 17 -6 -11 -3 -26 -14 -33 -24 -10 -14 -18 -17 -29 -10 -9 5 -34 6
-55 4 -21 -3 -38 -1 -38 4 0 5 -16 7 -35 5 -19 -2 -35 -8 -35 -12 0 -4 -17 -4
-37 1 -21 5 -55 9 -75 9 -20 0 -40 5 -43 10 -3 6 -1 10 5 10 7 0 8 6 1 18 -19
35 20 52 72 33z m-743 -321 c0 -5 7 -10 15 -10 8 0 15 5 15 10 0 12 89 10 96
-2 3 -4 15 -6 27 -3 12 3 28 1 36 -4 12 -8 12 -12 2 -25 -8 -9 -20 -16 -27
-16 -20 0 -17 -18 4 -23 13 -4 12 -5 -5 -6 -12 0 -23 4 -25 10 -3 9 -13 9 -38
1 -19 -6 -59 -14 -87 -18 l-53 -7 0 32 c0 17 -4 31 -10 31 -5 0 -10 9 -10 20
0 16 7 20 30 20 17 0 30 -4 30 -10z m-143 -147 c4 -10 11 -21 16 -25 12 -7
-88 -58 -115 -58 -11 0 -30 -11 -44 -25 -14 -14 -27 -25 -29 -25 -3 0 -26 -15
-52 -34 -55 -39 -89 -51 -98 -36 -20 32 -84 -12 -85 -57 0 -16 -6 -23 -19 -23
-11 0 -26 -7 -34 -15 -8 -7 -33 -22 -55 -32 -23 -9 -46 -26 -52 -38 -6 -11
-26 -25 -45 -31 -34 -11 -35 -10 -35 15 0 27 2 28 93 71 26 13 57 59 57 85 0
6 18 18 40 25 22 7 40 17 40 22 0 4 11 8 25 8 16 0 25 6 25 15 0 20 -26 72
-38 77 -5 1 -12 13 -16 24 -5 17 -2 23 16 28 43 11 56 6 87 -36 17 -23 38 -43
47 -44 9 -1 38 11 65 27 28 16 56 29 62 29 7 0 28 16 47 35 38 39 86 48 97 18z
m1504 -156 c98 -30 193 -47 260 -47 69 0 101 -15 259 -118 80 -52 174 -113
210 -135 36 -22 92 -60 125 -86 81 -62 241 -217 275 -267 45 -64 112 -202 105
-214 -3 -6 -30 -22 -58 -36 -100 -51 -215 -133 -304 -217 -89 -84 -92 -86
-194 -117 -57 -18 -135 -42 -174 -55 -38 -13 -110 -35 -160 -50 -49 -15 -135
-45 -190 -67 -138 -55 -135 -55 -307 -68 -84 -6 -177 -18 -206 -26 -39 -11
-62 -12 -90 -5 -20 5 -102 17 -182 26 -133 15 -228 32 -305 55 -16 5 -66 18
-109 30 -44 12 -111 37 -149 56 -116 59 -217 94 -322 111 -159 26 -226 66
-497 299 -49 41 -88 82 -88 89 0 27 86 149 161 229 68 73 146 142 303 270 157
128 386 249 601 318 119 39 131 40 167 22 37 -19 87 -16 308 16 199 28 442 23
561 -13z m-3254 -88 c26 -11 82 -32 123 -46 41 -14 100 -37 130 -50 30 -14 84
-37 120 -51 77 -30 94 -43 110 -85 6 -18 18 -47 26 -66 24 -54 125 -202 179
-261 27 -30 94 -110 147 -176 100 -125 173 -198 242 -241 21 -14 66 -50 100
-81 94 -86 115 -101 196 -138 41 -19 91 -44 111 -54 19 -11 114 -46 210 -78
96 -33 212 -75 259 -94 47 -19 108 -41 135 -47 75 -18 234 -62 285 -78 25 -8
88 -19 140 -23 140 -12 497 -12 560 0 30 6 82 15 115 20 133 21 181 35 370
110 11 5 45 16 75 26 30 9 64 20 75 25 62 25 231 69 302 79 83 11 155 41 203
84 14 13 58 45 99 71 41 27 102 72 135 100 34 28 83 66 109 84 27 18 64 46 82
62 35 31 143 59 225 59 71 0 375 -125 515 -213 93 -58 229 -174 407 -346 l177
-172 67 -137 c36 -75 88 -175 114 -222 102 -180 223 -592 255 -868 14 -123 7
-348 -14 -462 -24 -126 -53 -440 -62 -655 -5 -126 -13 -250 -18 -275 -13 -60
-13 -666 -1 -755 6 -38 28 -131 50 -205 75 -263 142 -634 143 -800 1 -103 -2
-123 -27 -190 -96 -256 -176 -321 -335 -274 -40 12 -66 28 -101 65 -56 59
-122 186 -128 249 -3 29 11 123 37 255 22 116 59 307 81 425 23 118 45 229 50
245 4 17 26 89 48 160 74 238 76 275 64 956 -12 630 -10 608 -68 839 -14 58
-30 132 -35 165 -5 33 -13 71 -18 85 -5 14 -14 45 -22 70 -16 57 -130 297
-176 370 -71 114 -229 234 -349 265 -72 19 -115 19 -179 1 -28 -7 -79 -22
-115 -31 l-65 -18 -41 26 c-92 57 -108 61 -274 60 -85 0 -184 -6 -220 -12 -81
-16 -239 -91 -303 -144 l-48 -41 3 -60 c1 -36 -4 -71 -12 -86 -11 -21 -31 -83
-71 -230 -24 -84 -49 -236 -63 -378 -21 -198 -23 -1199 -3 -1350 14 -111 15
-701 2 -1062 -8 -227 -2 -357 30 -670 15 -136 23 -178 90 -460 52 -219 66
-324 68 -495 2 -163 -5 -199 -54 -271 -36 -54 -129 -100 -230 -115 -73 -12
-78 -11 -132 14 -59 27 -146 108 -174 162 -36 68 -24 280 22 413 14 40 34 137
45 215 33 245 64 427 114 674 8 39 18 116 21 170 6 89 22 231 45 388 5 33 14
208 21 388 10 263 10 342 0 395 -7 37 -19 101 -27 142 -17 93 -47 199 -74 265
-77 187 -76 180 -90 590 -9 269 -10 273 -62 475 -19 74 -41 162 -48 195 -14
68 -36 150 -50 180 -17 40 -59 162 -91 265 -64 208 -174 371 -297 441 -129 73
-160 88 -218 108 -59 21 -64 21 -160 7 -152 -23 -213 -48 -495 -198 -36 -20
-144 -65 -241 -102 l-176 -66 -153 0 c-202 0 -265 14 -464 102 -255 113 -323
139 -389 148 -33 4 -101 16 -151 25 -68 13 -116 16 -195 11 -98 -6 -111 -10
-197 -51 -91 -45 -94 -48 -238 -209 -80 -90 -156 -178 -169 -197 -70 -96 -134
-198 -146 -229 -7 -19 -19 -48 -25 -65 -27 -64 -93 -232 -104 -260 -6 -16 -27
-115 -47 -220 -19 -104 -40 -210 -45 -235 -39 -192 -39 -629 0 -1135 5 -71 15
-203 21 -292 8 -122 18 -188 41 -270 16 -59 38 -148 49 -198 11 -49 31 -135
44 -190 82 -342 116 -517 116 -600 0 -72 -23 -231 -44 -298 -22 -73 -73 -145
-119 -169 -22 -11 -66 -22 -96 -25 -52 -5 -58 -3 -84 25 -41 43 -123 160 -149
212 -22 43 -23 56 -21 250 1 204 1 207 51 455 68 337 68 335 96 1085 8 216
-12 538 -45 720 -16 92 -46 451 -41 508 2 30 -3 95 -12 145 -27 162 -46 353
-46 474 0 189 46 432 105 561 14 29 25 54 25 57 0 2 53 111 117 242 108 219
117 243 121 306 7 109 -13 144 -123 216 -103 67 -123 78 -205 117 -72 34 -79
36 -160 31 -127 -7 -296 -48 -411 -99 -99 -45 -208 -143 -304 -273 -17 -22
-50 -64 -74 -94 -40 -50 -97 -162 -315 -614 -92 -191 -100 -230 -122 -587 -16
-259 -14 -560 5 -630 5 -19 16 -62 26 -95 18 -63 37 -346 39 -580 1 -116 4
-138 29 -205 29 -77 46 -212 67 -525 12 -169 6 -213 -41 -311 -57 -121 -116
-165 -175 -131 -38 21 -94 99 -94 129 0 7 16 -6 36 -29 42 -50 75 -56 92 -18
17 36 15 52 -12 117 l-24 58 33 67 c45 94 69 218 54 277 -10 41 -15 46 -45 52
-21 4 -40 2 -49 -6 -15 -12 -29 -75 -40 -173 -7 -65 -24 -87 -65 -87 -25 0
-31 -5 -39 -37 -6 -21 -11 -49 -12 -63 -1 -20 -4 -17 -14 15 -26 77 -15 452
20 705 26 192 35 361 36 720 1 282 -3 387 -17 510 -13 114 -17 229 -17 430 1
587 64 1003 199 1310 62 142 238 483 319 620 197 331 314 452 666 687 146 98
430 233 595 282 142 43 297 52 371 20z m-2974 -1374 c19 -44 56 -118 82 -165
26 -47 64 -114 83 -150 20 -36 52 -88 72 -115 79 -107 223 -333 256 -399 20
-39 61 -109 92 -156 l57 -85 1 -240 c1 -132 9 -314 18 -405 13 -146 19 -248
17 -288 -1 -7 -5 -10 -11 -7 -28 17 -194 258 -213 309 -5 11 1 31 14 52 19 32
20 36 5 59 -8 13 -31 36 -51 50 -45 35 -92 111 -235 380 -56 104 -138 337
-168 475 -39 177 -42 201 -33 217 7 13 20 -1 63 -68 61 -93 81 -114 103 -105
23 8 18 51 -15 126 -16 38 -30 72 -30 76 0 11 -80 134 -112 171 -32 38 -35 55
-43 233 -4 89 -3 132 4 125 5 -6 25 -46 44 -90z m11478 -22 c-11 -59 -25 -139
-31 -178 -14 -92 -28 -167 -46 -235 -7 -30 -21 -93 -30 -139 -15 -82 -90 -326
-118 -386 -59 -126 -105 -276 -121 -396 -9 -67 -55 -156 -138 -266 -132 -175
-229 -327 -352 -549 -92 -165 -129 -217 -230 -325 -45 -48 -114 -124 -153
-170 -90 -105 -257 -257 -402 -366 -30 -23 -98 -74 -150 -114 -99 -76 -215
-149 -237 -149 -10 0 -13 39 -13 169 l0 170 93 65 c50 36 115 86 142 112 28
25 69 59 92 75 23 16 43 32 45 36 1 5 30 30 63 56 111 90 315 289 321 313 8
32 -11 54 -46 54 -20 0 -53 -20 -110 -67 -46 -38 -113 -90 -150 -118 -75 -57
-108 -84 -292 -243 -71 -63 -134 -110 -138 -105 -4 4 -4 46 1 93 5 47 13 135
19 195 10 102 25 211 35 261 3 12 31 41 62 65 32 24 63 47 68 51 16 13 149
118 300 238 278 220 311 247 449 372 186 167 446 434 520 533 33 44 76 103 96
130 111 150 286 495 405 800 25 65 49 123 52 128 14 24 13 -12 -6 -110z
m-9121 -214 c79 -37 197 -132 217 -174 14 -30 13 -36 -17 -106 -18 -41 -61
-132 -95 -204 -201 -413 -224 -472 -250 -631 -29 -175 -11 -613 29 -708 18
-44 20 -56 7 -56 -5 0 -65 37 -134 83 -69 45 -163 102 -209 127 -101 55 -239
145 -255 167 -9 12 -13 58 -13 143 0 111 3 134 24 186 26 62 21 88 -12 68 -42
-27 -92 -186 -92 -294 0 -27 -4 -52 -10 -55 -24 -15 -258 181 -280 235 -16 38
30 192 116 389 209 482 487 780 789 844 99 22 112 21 185 -14z m3672 -692 c94
-45 180 -113 231 -179 73 -97 198 -386 262 -606 36 -128 60 -302 90 -658 9
-106 27 -236 39 -291 19 -81 22 -118 18 -201 -4 -97 -3 -106 22 -151 20 -38
23 -51 13 -58 -6 -6 -88 -18 -182 -27 -93 -9 -206 -21 -250 -26 -44 -6 -126
-13 -182 -16 -118 -8 -114 -13 -87 91 48 183 57 237 42 251 -8 9 -22 12 -32 8
-26 -10 -115 -151 -122 -193 -16 -100 -26 -140 -38 -151 -10 -8 -47 -8 -137 0
-68 6 -182 15 -254 20 -209 15 -265 21 -271 31 -3 5 -12 34 -20 66 -34 129
-141 262 -179 221 -11 -11 -9 -26 10 -84 28 -85 42 -188 26 -198 -17 -11 -653
109 -823 154 -84 23 -214 61 -288 86 -74 24 -198 60 -275 79 -216 55 -309 87
-430 148 -27 14 -99 46 -160 72 -167 71 -243 114 -250 143 -9 37 5 126 77 477
21 105 62 214 133 355 82 164 166 281 288 402 83 82 140 115 247 143 128 33
405 -4 540 -74 30 -15 98 -50 150 -78 147 -77 221 -102 340 -114 131 -14 413
-5 496 15 67 17 419 192 525 262 36 24 88 53 115 65 156 69 202 72 316 16z
m2088 -132 l355 0 60 -32 c56 -29 104 -77 147 -144 22 -35 140 -317 167 -399
32 -100 79 -314 92 -422 14 -118 8 -137 -53 -167 -24 -11 -58 -31 -75 -43 -54
-40 -250 -131 -267 -125 -12 5 -16 19 -16 56 0 61 -33 172 -59 195 -28 25 -55
17 -59 -17 -2 -16 1 -34 6 -40 35 -42 56 -207 30 -233 -17 -17 -351 -155 -436
-180 -32 -9 -108 -29 -170 -44 -112 -28 -224 -80 -359 -166 -87 -55 -151 -85
-159 -73 -13 22 -22 497 -14 727 17 429 33 633 61 767 20 94 61 220 85 261 49
83 84 97 219 86 50 -3 250 -7 445 -7z m-6720 -834 c100 -82 247 -153 433 -211
89 -27 349 -155 378 -186 15 -16 26 -47 35 -97 6 -39 23 -133 37 -207 39 -203
47 -342 40 -637 -3 -144 -9 -267 -13 -273 -15 -24 -355 150 -472 242 -150 118
-289 242 -430 387 l-158 160 -1 263 c-1 145 -1 277 -1 293 1 17 4 110 8 208
l6 179 32 -30 c17 -17 65 -58 106 -91z m7565 -733 c-4 -84 -9 -288 -11 -453
-2 -179 -9 -356 -19 -438 -8 -77 -15 -143 -15 -148 0 -5 -17 -19 -37 -32 -21
-13 -94 -60 -163 -104 -69 -44 -170 -106 -225 -138 -55 -32 -138 -84 -185
-115 -132 -87 -224 -134 -360 -183 -130 -47 -194 -59 -395 -77 -66 -6 -138
-15 -160 -20 -58 -14 -115 -12 -115 3 0 6 12 53 27 102 25 86 26 101 29 370 7
736 5 692 28 714 63 58 286 179 451 246 182 74 283 106 505 165 306 81 395
113 515 189 61 39 116 70 124 71 12 0 13 -24 6 -152z m-6087 -59 c37 -17 119
-51 182 -76 63 -25 217 -96 341 -158 245 -122 307 -145 444 -170 50 -9 124
-22 165 -30 41 -8 125 -19 185 -25 61 -6 169 -22 240 -35 72 -13 207 -29 300
-35 160 -10 205 -18 407 -69 129 -33 608 -74 873 -75 160 -1 161 -1 230 31 62
28 87 34 205 43 74 5 176 10 227 10 l91 0 8 -77 c5 -43 9 -226 8 -408 0 -352
-2 -373 -69 -640 -8 -33 -17 -72 -20 -87 -4 -22 -13 -29 -46 -38 -28 -8 -250
-12 -678 -13 -544 -2 -642 0 -676 13 l-40 15 70 5 70 5 0 30 0 30 -280 6
c-269 6 -471 22 -641 53 -43 8 -117 20 -164 26 -197 29 -437 101 -640 193 -30
13 -100 41 -155 61 -54 21 -156 64 -226 96 -70 32 -178 80 -240 105 -140 58
-181 79 -199 100 -8 9 -17 53 -21 98 -3 45 -11 132 -18 192 -14 144 -43 819
-35 839 9 23 25 20 102 -15z"/>
<path d="M14641 7343 c-29 -24 -43 -89 -32 -145 31 -149 35 -159 55 -156 29 4
85 137 86 201 0 95 -54 145 -109 100z"/>
<path d="M13632 3460 c-15 -21 -43 -47 -62 -56 -31 -15 -43 -16 -104 -5 -81
14 -102 4 -90 -43 15 -62 120 -102 198 -76 54 17 146 131 146 179 0 15 -30 41
-46 41 -8 0 -27 -18 -42 -40z"/>
<path d="M7002 3398 c-21 -26 -24 -85 -8 -148 9 -34 16 -72 16 -86 0 -27 -46
-154 -61 -169 -5 -5 -36 -10 -67 -10 -50 0 -57 -2 -60 -21 -2 -13 13 -39 43
-72 80 -89 152 -81 213 21 40 67 53 110 59 197 7 89 -28 242 -64 282 -19 21
-56 24 -71 6z"/>
<path d="M11468 2413 c-9 -10 -19 -29 -23 -43 -4 -14 -18 -44 -31 -67 -34 -59
-88 -83 -187 -83 -75 0 -77 -1 -83 -27 -6 -22 -2 -31 24 -53 17 -14 54 -34 83
-44 45 -17 58 -17 108 -6 75 16 156 56 185 91 14 16 30 53 37 83 10 48 10 61
-5 100 -11 29 -25 47 -39 51 -12 4 -29 9 -38 11 -9 2 -23 -4 -31 -13z"/>
<path d="M4456 7474 c-9 -8 -16 -25 -16 -37 0 -39 70 -170 114 -214 75 -74
158 -68 135 10 -14 50 -142 221 -183 244 -28 16 -32 16 -50 -3z"/>
<path d="M15498 7378 c-25 -20 -76 -106 -93 -158 -12 -35 -13 -54 -6 -74 20
-52 66 -22 129 83 51 85 56 131 17 149 -31 15 -28 15 -47 0z"/>
<path d="M15088 7003 c-110 -108 -125 -145 -78 -188 31 -28 61 -12 139 75 61
68 73 86 73 115 0 41 -16 65 -44 65 -12 0 -51 -30 -90 -67z"/>
<path d="M15385 6923 c-15 -16 -51 -62 -81 -103 -29 -41 -80 -112 -113 -157
-33 -44 -67 -95 -75 -112 -18 -34 -21 -97 -5 -106 21 -14 60 7 92 49 17 23 78
104 135 178 118 157 139 199 133 266 -2 23 -57 13 -86 -15z"/>
<path d="M14755 6240 c-34 -22 -128 -126 -138 -153 -10 -27 10 -57 39 -57 40
0 76 24 137 90 62 67 75 110 38 130 -28 14 -42 12 -76 -10z"/>
<path d="M14535 5701 c-16 -10 -41 -31 -55 -46 -25 -28 -128 -109 -251 -200
-147 -108 -259 -206 -265 -232 -7 -28 2 -50 29 -67 28 -18 91 20 247 150 30
25 75 62 99 82 25 20 65 52 90 71 92 69 179 152 191 181 12 28 10 33 -10 55
-28 30 -36 31 -75 6z"/>
<path d="M6115 5246 c-23 -35 -10 -71 44 -113 25 -21 65 -54 88 -75 54 -48
167 -101 217 -102 29 0 43 5 58 23 33 41 20 61 -67 109 -44 25 -122 75 -174
113 -104 77 -139 86 -166 45z"/>
<path d="M12848 4983 c-29 -33 -57 -100 -78 -185 -18 -71 -20 -92 -10 -126 16
-60 57 -56 90 8 25 48 80 235 80 269 0 49 -51 70 -82 34z"/>
<path d="M12390 4785 c-21 -26 -1 -67 62 -127 87 -82 148 -88 148 -15 0 64
-175 184 -210 142z"/>
<path d="M12945 4616 c-121 -64 -155 -93 -155 -133 0 -22 7 -33 25 -41 14 -7
31 -12 38 -12 20 0 118 48 179 88 63 41 88 75 88 121 0 29 -2 31 -37 30 -26 0
-71 -17 -138 -53z"/>
<path d="M7454 4889 c-27 -29 -28 -189 -2 -215 47 -47 110 63 89 155 -10 44
-35 81 -56 81 -7 0 -20 -9 -31 -21z"/>
<path d="M8589 4731 c-21 -17 -24 -27 -23 -88 1 -71 11 -101 47 -140 25 -28
41 -29 67 -3 38 38 22 179 -25 226 -29 29 -36 29 -66 5z"/>
<path d="M9352 4598 c-30 -37 -21 -149 14 -162 18 -7 50 8 57 27 14 37 18 106
8 126 -13 24 -62 29 -79 9z"/>
<path d="M7461 4492 c-16 -30 0 -70 42 -108 36 -33 89 -61 247 -128 30 -13 87
-38 125 -54 39 -17 90 -36 115 -42 38 -9 156 -53 248 -91 37 -15 102 -11 108
6 23 59 -54 107 -299 189 -180 60 -397 155 -480 211 -57 39 -91 44 -106 17z"/>
<path d="M10033 4429 c-42 -16 -66 -103 -39 -144 37 -56 117 -14 118 62 1 66
-32 100 -79 82z"/>
<path d="M10748 4186 c-24 -17 -23 -61 1 -95 26 -36 97 -69 119 -54 44 27 15
111 -48 143 -46 23 -49 24 -72 6z"/>
<path d="M8733 4109 c-20 -20 -15 -53 10 -77 24 -23 28 -23 227 -42 63 -6 180
-20 260 -30 208 -27 372 -35 401 -19 30 15 39 28 39 56 0 32 -37 53 -93 53
-26 0 -114 9 -195 19 -162 22 -383 41 -537 48 -73 3 -103 1 -112 -8z"/>
<path d="M10925 3966 c-29 -44 5 -136 51 -136 24 0 74 56 74 83 0 67 -91 106
-125 53z"/>
<path d="M10612 3934 c-137 -16 -154 -24 -150 -67 3 -31 4 -32 59 -35 67 -4
256 23 275 39 17 14 18 43 2 56 -24 18 -72 20 -186 7z"/>
<path d="M16789 14126 c-66 -25 -114 -54 -156 -94 -37 -33 -43 -45 -43 -79 0
-29 7 -48 25 -67 36 -38 77 -35 148 14 203 137 418 95 417 -82 -1 -55 -26
-111 -80 -171 -46 -52 -242 -217 -258 -217 -5 0 -12 20 -14 44 -7 63 -49 145
-98 194 -86 85 -205 123 -323 102 -141 -25 -241 -100 -297 -222 -56 -121 -41
-230 45 -340 52 -67 110 -100 177 -103 27 -1 50 -4 54 -7 6 -6 -41 -41 -69
-51 -27 -10 -32 -35 -14 -73 26 -55 70 -76 148 -72 58 3 81 11 211 77 458 229
702 495 673 730 -10 82 -39 151 -94 223 -61 81 -137 149 -198 179 -59 28 -197
37 -254 15z m-116 -552 c51 -36 86 -96 94 -162 5 -47 5 -49 -38 -86 -24 -21
-88 -67 -142 -104 -95 -64 -100 -66 -156 -65 -145 4 -236 100 -201 210 19 56
129 160 220 206 66 34 82 38 128 35 38 -3 65 -13 95 -34z"/>
<path d="M16732 11308 c-17 -17 -15 -33 14 -90 57 -113 184 -521 184 -594 0
-34 31 -140 84 -289 26 -74 38 -129 46 -215 14 -141 25 -178 56 -192 42 -19
50 -1 43 99 -4 48 -5 98 -2 111 8 34 -58 253 -84 282 -27 29 -28 41 -8 80 14
27 13 31 -10 66 -14 20 -25 45 -25 55 0 58 -50 199 -94 263 -14 21 -26 47 -26
57 0 28 -129 342 -148 362 -14 13 -20 15 -30 5z"/>
<path d="M3371 11281 c-30 -30 -47 -69 -66 -151 -9 -41 -29 -106 -45 -145 -15
-38 -38 -110 -50 -160 -12 -49 -47 -162 -76 -250 -37 -109 -55 -184 -60 -235
-3 -41 -13 -97 -22 -125 -12 -38 -16 -97 -17 -245 -1 -165 -4 -201 -19 -235
-10 -22 -22 -80 -26 -130 -8 -91 -21 -147 -39 -169 -24 -29 -29 -97 -15 -184
11 -63 16 -198 19 -492 3 -365 7 -436 31 -542 5 -21 0 -32 -20 -51 -34 -31
-33 -45 7 -97 17 -24 38 -52 46 -62 11 -14 16 -59 18 -161 4 -151 11 -178 58
-199 33 -15 38 -35 18 -69 -15 -25 -16 -36 -4 -90 7 -34 16 -69 21 -78 4 -9
16 -47 25 -86 9 -38 23 -98 32 -132 9 -34 13 -69 9 -78 -9 -24 23 -125 50
-157 12 -15 32 -54 44 -85 29 -78 72 -153 126 -219 24 -30 44 -61 44 -68 0
-22 40 -66 60 -66 32 0 34 37 5 72 -22 26 -26 39 -21 67 4 28 -1 46 -29 91
-19 31 -48 86 -64 123 -17 37 -34 67 -38 67 -5 0 -26 16 -46 35 -20 19 -43 35
-51 35 -20 0 -37 25 -30 43 3 9 19 20 35 26 16 5 29 15 29 21 0 28 -23 157
-33 180 -36 88 -57 160 -57 196 0 22 -11 73 -25 112 -14 39 -25 85 -25 101 0
17 -7 56 -16 88 -9 32 -20 76 -25 98 -5 22 -16 57 -24 78 -9 21 -15 55 -16 75
0 124 -29 373 -45 393 -18 22 -23 57 -10 68 8 6 11 72 10 218 -2 208 -9 299
-25 309 -13 7 -11 52 2 60 7 4 9 27 5 63 -3 31 -2 90 3 131 27 213 41 346 46
445 3 61 12 135 20 165 8 30 15 84 15 120 1 37 7 76 15 90 8 14 14 40 15 58 0
18 7 49 15 69 9 21 15 67 15 113 0 50 7 100 20 140 11 34 20 67 20 72 0 5 13
28 29 52 37 54 81 213 80 287 -1 45 5 68 34 125 83 162 121 266 104 283 -17
17 -65 13 -86 -8z"/>
<path d="M17139 9763 c-24 -27 -28 -66 -19 -173 5 -52 11 -189 14 -305 4 -115
11 -253 16 -305 5 -59 5 -111 0 -137 -6 -23 -12 -122 -15 -220 -2 -98 -8 -191
-11 -206 -4 -16 -2 -38 4 -50 6 -12 13 -38 14 -57 3 -30 7 -35 31 -38 46 -5
57 12 57 88 0 36 -5 92 -11 124 -10 47 -9 62 4 94 13 30 16 66 13 187 -2 83
-7 296 -10 475 -6 293 -9 331 -28 383 -13 35 -18 68 -15 86 4 20 1 37 -11 51
-17 21 -18 21 -33 3z"/>
<path d="M17086 8055 c-3 -9 -6 -28 -6 -41 0 -14 -7 -41 -16 -62 -8 -20 -20
-57 -24 -82 -5 -25 -19 -94 -31 -155 -11 -60 -29 -141 -40 -180 -10 -38 -25
-115 -34 -170 -12 -72 -29 -126 -60 -195 -23 -52 -55 -135 -70 -185 -27 -88
-91 -220 -126 -260 -27 -30 -51 -94 -44 -116 4 -13 16 -19 36 -19 23 0 34 8
54 40 14 22 25 44 25 48 0 5 8 20 18 33 39 50 144 274 168 354 9 33 32 101 50
150 50 139 60 185 104 479 11 72 33 176 49 231 17 61 26 108 21 120 -9 26 -65
33 -74 10z"/>
<path d="M16557 6432 c-10 -10 -17 -28 -17 -40 0 -12 -20 -44 -45 -72 -25 -28
-48 -63 -52 -78 -25 -103 -180 -415 -244 -492 -20 -25 -40 -56 -44 -69 -4 -13
-24 -42 -44 -65 -65 -72 -89 -110 -106 -170 -21 -72 -86 -175 -149 -236 -43
-41 -60 -80 -35 -80 19 0 153 130 177 173 12 22 33 51 46 63 29 30 125 172
167 249 18 33 58 99 89 146 31 47 82 137 114 200 32 63 76 146 98 184 52 90
108 222 108 255 0 47 -34 64 -63 32z"/>
<path d="M3580 6355 c-9 -11 -7 -32 9 -97 12 -46 26 -84 31 -86 5 -2 25 -14
45 -28 40 -27 56 -29 72 -13 14 14 7 34 -27 79 -15 19 -33 51 -39 72 -12 37
-52 88 -69 88 -5 0 -15 -7 -22 -15z"/>
<path d="M3896 5788 c-22 -12 -16 -59 16 -120 25 -48 53 -63 91 -49 32 12 34
29 7 81 -34 66 -84 105 -114 88z"/>
</g>
</svg>
