<?xml version="1.0" encoding="iso-8859-1"?>
<!-- Uploaded to: SVG Repo, www.svgrepo.com, Generator: SVG Repo Mixer Tools -->
<svg height="800px" width="800px" version="1.1" id="Layer_1" xmlns="http://www.w3.org/2000/svg" xmlns:xlink="http://www.w3.org/1999/xlink" 
	 viewBox="0 0 512 512" xml:space="preserve">
<path style="fill:#EDA156;" d="M255.999,0.001C114.615,0.001,0,114.616,0,256s114.615,255.999,255.999,255.999
	S511.999,397.384,511.999,256S397.385,0.001,255.999,0.001z M255.999,349.74c-51.77,0-93.74-41.969-93.74-93.74
	s41.969-93.74,93.74-93.74s93.74,41.969,93.74,93.74S307.771,349.74,255.999,349.74z"/>
<path style="fill:#DD8E40;" d="M421.673,60.853c37.946,44.652,60.854,102.483,60.854,165.673
	c0,141.384-114.615,255.999-255.999,255.999c-63.189,0-121.02-22.908-165.673-60.854c46.957,55.256,116.951,90.327,195.147,90.327
	C397.385,511.999,512,397.384,512,256C512,177.805,476.929,107.811,421.673,60.853z"/>
<path style="fill:#F9DE8F;" d="M431.729,257.78L431.729,257.78c-18.86-8.135-22.482-33.319-6.677-46.438l0,0
	c21.603-17.932,5.632-52.902-22.067-48.318l0,0c-20.265,3.353-36.926-15.875-30.723-35.457l0,0
	c8.478-26.765-23.863-47.549-44.687-28.719l0,0c-15.235,13.776-39.647,6.609-45.016-13.217l0,0
	c-7.338-27.099-45.782-27.099-53.119,0l0,0c-5.368,19.827-29.78,26.994-45.016,13.217l0,0c-20.824-18.83-53.165,1.954-44.687,28.719
	l0,0c6.203,19.581-10.459,38.81-30.723,35.457l0,0c-27.698-4.583-43.67,30.387-22.067,48.318l0,0
	c15.805,13.12,12.185,38.302-6.677,46.438l0,0c-25.779,11.119-20.308,49.172,7.559,52.579l0,0
	c20.388,2.492,30.957,25.635,19.49,42.676l0,0c-15.675,23.291,9.5,52.346,34.786,40.145l0,0
	c18.499-8.927,39.903,4.828,39.468,25.364l0,0c-0.594,28.069,36.292,38.9,50.967,14.966l0,0c10.737-17.51,36.179-17.51,46.916,0l0,0
	c14.675,23.934,51.562,13.103,50.967-14.966l0,0c-0.435-20.536,20.969-34.291,39.468-25.364l0,0
	c25.285,12.201,50.462-16.854,34.786-40.145l0,0c-11.469-17.04-0.899-40.184,19.49-42.676l0,0
	C452.037,306.952,457.508,268.899,431.729,257.78z M255.999,349.74c-51.77,0-93.74-41.969-93.74-93.74s41.969-93.74,93.74-93.74
	s93.74,41.969,93.74,93.74S307.771,349.74,255.999,349.74z"/>
<g>
	<circle style="fill:#F7E7BF;" cx="399.293" cy="277.021" r="9.407"/>
	<circle style="fill:#F7E7BF;" cx="380.479" cy="189.281" r="9.407"/>
	<circle style="fill:#F7E7BF;" cx="260.776" cy="125.356" r="9.407"/>
	<circle style="fill:#F7E7BF;" cx="171.67" cy="129.117" r="9.407"/>
	<circle style="fill:#F7E7BF;" cx="122.773" cy="201.815" r="9.407"/>
	<circle style="fill:#F7E7BF;" cx="141.587" cy="286.422" r="9.407"/>
	<circle style="fill:#F7E7BF;" cx="138.454" cy="359.146" r="9.407"/>
	<circle style="fill:#F7E7BF;" cx="211.78" cy="372.934" r="9.407"/>
	<circle style="fill:#F7E7BF;" cx="286.421" cy="394.869" r="9.407"/>
	<circle style="fill:#F7E7BF;" cx="356.613" cy="335.958" r="9.407"/>
	<circle style="fill:#F7E7BF;" cx="322.771" cy="363.533" r="9.407"/>
</g>
</svg>