<?xml version="1.0" encoding="iso-8859-1"?>
<!-- Uploaded to: SVG Repo, www.svgrepo.com, Generator: SVG Repo Mixer Tools -->
<svg height="800px" width="800px" version="1.1" id="Layer_1" xmlns="http://www.w3.org/2000/svg" xmlns:xlink="http://www.w3.org/1999/xlink" 
	 viewBox="0 0 512.4 512.4" xml:space="preserve">
<g>
	<path style="fill:#A1887F;" d="M462.483,12.4c10.4-10.4,28-10.8,38.4,0c10.4,10.4,10.4,27.6,0,38.4l-73.2,73.2l-38.4-38
		L462.483,12.4L462.483,12.4z"/>
	<path style="fill:#A1887F;" d="M376.083,74.8l62.4,62.4c12.4,12.4,12.4,32.8,0,45.2L182.883,438c-12.4,12.4-32.8,12.4-45.2,0
		l-62.4-62.4c-12.4-12.4-12.4-32.8,0-45.2l255.6-255.6C343.283,62.4,363.683,62.4,376.083,74.8z"/>
	<path style="fill:#A1887F;" d="M124.083,427.2l-73.2,73.2h-0.4c-10.4,10.4-28,10.8-38.4,0c-10.4-10.4-10.4-27.6,0-38.4l73.2-73.2
		L124.083,427.2z"/>
</g>
<path d="M31.283,512.4c-8,0-16-3.2-22-9.2c-12-12-12-31.6,0-44l73.2-73.2c1.6-1.6,4-1.6,5.6,0s1.6,4,0,5.6l-73.2,73.2
	c-9.2,9.2-9.2,23.6,0,32.8c8.8,8.8,23.6,8.8,32.8,0l0.4-0.4l72.8-72.8c1.6-1.6,4-1.6,5.6,0s1.6,4,0,5.6l-73.2,73.2l-0.4,0.4
	C46.883,509.2,39.283,512.4,31.283,512.4z"/>
<path d="M427.283,127.6c-1.2,0-2-0.4-2.8-1.2c-1.6-1.6-1.6-4,0-5.6l73.2-73.2c4.4-4.4,6.8-10,6.8-16.4c0-6-2.4-12-6.8-16.4
	s-10.4-6.4-16.4-6.8c-6,0-12,2.4-16.4,6.8l-0.4,0.4l-72.8,72.8c-1.6,1.6-4,1.6-5.6,0s-1.6-4,0-5.6l73.2-73.2l0.4-0.4
	c6-5.6,13.6-8.8,21.6-8.8l0,0c8.4,0,16,3.2,22,8.8c6,6,9.2,13.6,8.8,22c0,8.4-3.2,16-9.2,22l-73.2,73.2
	C429.283,127.2,428.483,127.6,427.283,127.6z"/>
<path d="M160.083,451.6L160.083,451.6c-9.6,0-18.8-3.6-25.6-10.4l-62.4-62.4c-14-14-14-36.8,0-50.8l255.6-255.6
	c14-14,36.8-14,50.8,0l62.4,62.4l0,0c14,14,14,36.8,0,50.8l-255.6,255.6C178.883,447.6,169.683,451.6,160.083,451.6z M353.283,69.2
	c-7.2,0-14.4,2.8-19.6,8l-255.6,255.6c-10.8,10.8-10.8,28.8,0,39.6l62.4,62.4c5.2,5.2,12.4,8,19.6,8l0,0c7.6,0,14.4-2.8,19.6-8
	l255.6-255.6c10.8-10.8,10.8-28.8,0-39.6l-62.4-62.4C367.683,72,360.483,69.2,353.283,69.2z"/>
<path d="M322.483,109.2c-1.2,0-2-0.4-2.8-1.2c-1.6-1.6-1.6-4,0-5.6l19.2-19.2c1.6-1.6,4-1.6,5.6,0s1.6,4,0,5.6l-19.2,19.2
	C324.883,108.8,323.683,109.2,322.483,109.2z"/>
<path d="M240.883,190.8c-1.2,0-2-0.4-2.8-1.2c-1.6-1.6-1.6-4,0-5.6l67.2-67.2c1.6-1.6,4-1.6,5.6,0s1.6,4,0,5.6l-67.2,67.2
	C242.883,190.4,242.083,190.8,240.883,190.8z"/>
</svg>